**ABCDEFGHIJKLMNOPQRSTUVWXYZabcdefghijklmnopqrstuvwxyz**************************
**PARASOLID !"#$%&'()*+,-./:;<=>?@[\]^_`{|}~0123456789**************************
**PART1;
MC=x64/Windows NT;
MC_MODEL=genuineintel family 6 model 14 stepping 10, intel(r) core(tm) i7-9750h cpu @ 2.60ghz;
MC_ID=laptop-4ks723e7;
OS=windows nt (x64);
OS_RELEASE=6.3 windows 10 home (build 22000) ;
FRU=mdc_ugii_v7.0_djl_can_vrh;
APPL=unigraphics;
SITE=unknown;
USER=chare;
FORMAT=text;
GUISE=transmit;
KEY=Body2;
FILE=C:\Users\chare\Documents\RPI\Master's Project\CAD\Body2.x_t;
DATE=30-dec-2021;
**PART2;
SCH=SCH_3201212_32001;
USFLD_SIZE=0;
**PART3;
**END_OF_HEADER*****************************************************************
T51 : TRANSMIT FILE created by modeller version 320121223 SCH_3201212_32001_1300
6229 0 10 20 CCCCCCCI4 mesh1006 0 I8 polyline1008 0 CCCCCCCCCCA16 mesh_offset_da
ta206 0 Z1 2 0 0 0 0 0 0 0 0 0 1e3 1e-8 0 0 0 1 0 1 2 0 11 255 2 1 0 1 3 4 1 0 0
 0 0 12 34 CCCCCCI4 mesh1006 0 I8 polyline1008 0 CCCCCCCDI5 owner1040 0 CCCCCCI1
3 boundary_mesh1006 0 I17 boundary_polyline1008 0 CCCA16 index_map_offset0 0 1 d
A9 index_map82 0 A17 node_id_index_map82 0 A20 schema_embedding_map82 0 A5 child
12 0 A14 lowest_node_id0 0 1 dA16 mesh_offset_data206 0 Z3 844 5 6 0 0 0 0 0 0 1
e3 1e-8 2 0 0 1 0 1 1 7 8 9 10 0 0 11 12 13 0 0 0 0 0 0 0 100 255 4 2 2 0 0 1 0
 0 0 1 0 0 0 1 0 0 0 1 0 ?81 255 1 5 844 14 3 15 0 0 0 16 70 11 CI9 list_type0 0
 1 uI10 notransmit0 0 1 lCCCDCCDI12 finger_index0 0 1 dI12 finger_block1012 0 CZ
6 0 4 T3 0 0 9 20 1 17 17 13 255 7 82 0 3 0 18 0 0 19 0 68 255 8 228 0 20 21 0 2
2 +23 .00826664512000003 -368594044175552e-31 .127 -1 0 0 ????0 1 0 .12428477652
5866 31 255 9 288 0 12 24 0 0 -.0168415786329429 -368594044175552e-31 .127 -1 0
 0 0 0 1 .0436506886775098 29 255 10 294 0 13 25 0 .0796989841755708 .03 .144911
4501078986 19 8 CCCCCCCA5 owner12 0 Z11 95 0 3 19 0 26 V0 16 255 12 286 27 ?28 0
 29 9 0 0 3 18 255 13 292 30 31 0 32 10 ?3 81 1 30 599 33 13 0 0 34 35 36 17 255
 31 0 37 38 39 13 40 41 0 42 +18 32 274 34 43 13 44 25 ?3 81 1 34 598 33 32 0 0
 45 30 46 17 43 0 37 39 38 32 47 48 0 49 -18 44 65 50 51 32 52 53 ?3 29 25 276 0
 32 53 10 .0168415786329429 .03 .1587077691113845 29 53 67 0 44 54 25 -.09760150
50648561 -556778912932281e-26 .127 29 54 62 0 52 55 53 -.09910259 -3685940441755
52e-31 .127 18 52 60 56 57 44 58 54 ?3 29 55 52 0 58 59 54 .11563588024 -3685940
44175552e-31 .127 18 58 50 60 61 52 62 55 ?3 29 59 47 0 62 63 55 .11413479530485
62 -556780893041202e-26 .127 18 62 45 64 65 58 66 59 ?3 29 63 514 0 66 67 59 .01
68415786329429 -.03 .160745133712883 18 66 423 68 69 62 70 63 ?3 29 67 515 0 70
 71 63 .0168415786329429 -.03 .1587077691113845 18 70 411 72 73 66 74 67 ?3 29 7
1 516 0 74 75 67 .0796989841755711 -.03 .1449114501078986 18 74 426 76 77 70 78
 71 ?3 29 75 517 0 78 79 71 .0796989841755708 -.03 .1415669952123976 18 78 415 8
0 81 74 82 75 ?3 29 79 518 0 82 83 75 .0168415786329429 .03 .160745133712883 18
 82 410 45 38 78 84 79 ?3 29 83 521 0 84 0 79 .0796989841755708 .03 .14156699521
23974 18 84 418 35 39 82 0 83 ?3 81 1 35 600 33 84 0 0 30 85 86 17 39 0 37 31 43
 84 87 88 0 40 -15 255 37 461 0 38 89 0 17 87 0 90 28 91 32 39 88 0 0 +16 88 275
 92 ?87 93 94 95 0 0 3 17 40 0 96 81 42 84 31 41 0 91 -15 96 453 0 40 97 0 17 81
 0 96 98 40 78 91 93 0 99 +17 42 0 96 40 98 13 100 101 0 102 -16 41 356 103 ?31
 104 48 105 0 0 3 17 91 0 90 87 106 84 81 93 0 0 -15 90 272 0 87 18 0 17 106 0 9
0 91 28 78 73 29 0 0 -16 93 279 107 ?81 29 88 108 0 0 3 81 1 107 802 109 93 110
 0 111 112 113 16 29 283 114 ?73 12 93 24 0 0 3 31 108 281 0 93 95 24 0 -.079698
9841755708 -368594044175552e-31 .127 -1 0 0 0 0 1 .0333496229291729 38 12 CCCCCC
CCCCCA17 intersection_data204 0 Z95 277 0 88 115 108 0 +21 116 117 118 119 120 3
8 24 285 0 29 108 9 0 +21 121 122 123 124 125 68 21 227 0 18 126 8 127 +128 .008
26664512000003 -368594044175552e-31 .127 -1 0 0 .1141347953048562 -5567808930412
02e-26 .127 ?.000846752614345441 ?0 1 0 0 50 255 121 493 0 129 130 131 132 +.048
2702814042568 -.03 .14 0 -1 0 0 0 -1 40 255 4 122 0 1 4 .00768256063515409 .2911
347169843555 ??.0796989841755707 -.03 .1415669952123976 .0673838265618348 -.03 .
1487313058577324 .02636668448544325 -.03 .157849376784693 .0168415786329429 -.03
 .1587077691113845 41 3 CI8 term_use0 0 1 cCZ1 123 L?.0796989841755707 -.03 .141
5669952123976 41 1 124 L?.0168415786329429 -.03 .1587077691113845 204 2 17 INTER
SECTION_DATA17 Intersection data7 uv_type0 0 1 u6 values0 1 1 fT16 125 4 .343697
4074577845 3.59362693903249 -.001566995212397585 .0314287027713139 .400303360922
4705 3.76849227716612 -.00873130585773238 .019113545157578 .559918103489544 3.94
0948587313085 -.017849376784693 -.02190359691881355 .582556782343163 3.954658861
64672 -.0187077691113845 -.0314287027713139 14 255 129 470 133 ?97 134 135 7 121
 -0 0 97 134 26 50 130 494 0 97 116 121 0 +.0796989841755708 0 .14 1 0 0 0 0 -1
 50 131 492 0 134 121 136 0 +.0168415786329429 0 .14 1 2312964634635745e-31 0 -2
312964634635745e-31 1 0 141 255 132 24 137 137 121 141 137 138 132 132 121 38 13
8 499 0 139 140 141 0 +126 121 142 143 144 145 16 139 338 146 ?147 148 101 138 0
 0 3 31 140 500 0 101 149 138 0 -.0796989841755711 -368594044175552e-31 .127 -1
 0 0 0 0 1 .03494023533074355 31 141 498 0 148 138 23 0 -.0168415786329429 -3685
94044175552e-31 .127 -1 0 0 0 0 1 .0451523426778762 68 126 226 0 150 151 21 152
 +153 .00826664512000003 -368594044175552e-31 .127 -1 0 0 .11563588024 -36859404
4175552e-31 .127 ?0 ?0 1 0 0 40 3 142 0 1 3 .00580104184505129 .307822584814708
 ??.0796989841755708 -.03 .144911450107899 .0603022273398175 -.03 .1537395807823
43 .0168415786329429 -.03 .160745133712883 41 1 143 L?.0796989841755708 -.03 .14
4911450107899 41 1 144 L?.0168415786329429 -.03 .160745133712883 204 12 145 4 .3
463112580630405 3.679838986876915 -.00491145010789898 .031428702771314 .43589619
1844695 3.86959106797534 -.01373958078234296 .0120319459355607 .582719472811099
 3.985675037987505 -.020745133712883 -.0314287027713139 14 150 167 154 ?155 89 1
56 7 126 -0 0 155 89 26 68 151 225 0 155 157 126 0 +158 .00826664512000003 -3685
94044175552e-31 .127 -1 0 0 ?-.09910259 -368594044175552e-31 .127 ?.602704 0 1 0
 0 141 152 149 159 159 126 134 255 153 20 0 3 128 158 160 +161 162 134 128 12 0
 3 23 153 163 +164 165 134 158 24 0 3 153 166 167 +168 169 141 160 126 160 160 1
53 136 255 161 3 22 3 20 6 FFF2 170 171 172 135 255 162 2 0 45 255 66 170 .11563
588024 -368594044175552e-31 .127 .115613832256 .000664916447999962 .127 .1152433
66048 .00510985977599996 .127 .11446609288 .00748346625599996 .127 .112753254592
 .01150405804799994 .127 .111136625872 .01434612547199996 .127 .107690320576 .01
857316473599995 .127 .10621060312 .02002317743999995 .127 .103317096448 .0225881
5271999995 .127 .101184112 .02424585811199995 .127 .097978229824 .02637294038399
995 .127 .0953717108320001 .02783906025599995 .127 .091472128768 .03009374121599
995 .127 .0852847680640001 .03280135252799995 .127 .0819779656000001 .0341646254
8799995 .127 .074375040256 .03681339647999995 .127 .0656879749600001 .0390571456
7999995 .127 .057960012256 .04073096966399995 .127 .045662505328 .04266998803199
995 .127 .035644636768 .04373430297599995 .127 .0178184813440001 .045388833168 .
127 .00826664512000008 .04536 .127 127 255 22 171 4 1 1 1 1 1 1 1 1 1 1 1 1 1 1
 1 1 1 1 4 0 0 128 255 22 172 0 .028503 .051198 .077456 .102234 .132082 .151699
 .176668 .19888 .22408 .24666 .274645 .308338 .333468 .370018 .409455 .446713 .4
91629 .534026 .602704 ??134 166 32 0 3 158 173 174 +175 176 141 167 151 167 167
 158 136 168 3 22 3 20 6 FFF2 177 178 179 135 169 2 0 45 66 177 .008266645120000
08 .04536 .127 -.00128519110399994 .045388833168 .127 -.01911134652799995 .04373
430297599995 .127 -.02912921542399995 .04266998803199995 .127 -.0414267220159999
5 .04073096966399995 .127 -.049154685056 .03905714568 .127 -.0578417503519999 .0
3681339648 .127 -.0654446753599999 .03416462548799995 .127 -.0687514778239999 .0
3280135252799995 .127 -.074938838528 .03009374121599995 .127 -.078838420592 .027
839060256 .127 -.081444939584 .026372940384 .127 -.0846508217599999 .02424585811
199995 .127 -.086783806208 .02258815272 .127 -.0896773128799999 .020023177439999
95 .127 -.091157030672 .018573164736 .127 -.094603335968 .01434612547199998 .127
 -.096219964352 .01150405804799996 .127 -.09793280264 .00748346625599998 .127 -.
098710075808 .00510985977599998 .127 -.099080542016 .000664916447999962 .127 -.0
9910259 -368594044175552e-31 .127 127 22 178 4 1 1 1 1 1 1 1 1 1 1 1 1 1 1 1 1 1
 1 4 0 0 128 22 179 0 .068678 .111075 .155991 .193249 .232686 .269236 .294366 .3
28059 .356044 .378624 .403824 .426036 .451005 .470622 .50047 .525248 .551506 .57
4201 .602704 ??134 173 37 0 3 166 180 181 +182 183 141 174 157 174 174 166 136 1
75 3 171 3 169 6 FFF2 184 185 186 135 176 2 0 45 513 184 .00826211724138675 .043
86000683391045 .127 .00696751554819139 .04386391471792745 .127 .0043190258139985
 .04383262993484145 .127 .0002578544997574475 .0436892025062048 .127 -.003803622
86566079 .04347047260111025 .127 -.00777805410348884 .04319780928507575 .127 -.0
1094519950446822 .04294352252265635 .127 -.01334882142093112 .04273459283946995
 .127 -.01507574359785115 .0425778310651605 .127 -.01671618570636335 .0424236840
7539555 .127 -.0180021990275709 .04229965103927845 .127 -.01897727573698465 .042
2043900427336 .127 -.0196799806190585 .04213532301078135 .127 -.0203553051056576
5 .0420684656647217 .127 -.02122267148122265 .04198179748216095 .127 -.022250496
19994125 .04187733420251085 .127 -.0234122961306008 .0417556305950045 .127 -.024
52118508631475 .0416350368484939 .127 -.025596005183945 .04151299375954095 .127
 -.02665573212485405 .0413869246248611 .127 -.02754215934296345 .041276348554082
8 .127 -.028262832401736 .0411832736657953 .127 -.0288115060664127 .041110830981
03345 .127 -.0293706397409268 .04103543765902215 .127 -.029942927349204 .0409567
222150757 .127 -.03052748918968125 .04087481741618215 .127 -.031321105577067 .04
076167599010545 .127 -.03233617673806105 .04061339883677605 .127 -.0335794180588
121 .0404262384097061 .127 -.0348361610852091 .04023157653268825 .127 -.03609475
60020364 .04003114180830845 .127 -.0373435453590075 .0398266670709792 .127 -.038
5708809974053 .03961988723492115 .127 -.03976496983900695 .0394125644731091 .127
 -.0409143546120171 .03920641646183595 .127 -.0420059785733413 .0390034204312386
 .127 -.0430485291457581 .03880209865433 .127 -.04405274844398995 .0386006575157
16 .127 -.045028908953567 .0383973632161825 .127 -.0459874547884959 .03819044513
65449 .127 -.046938816092025 .0379781215761222 .127 -.047893324879447 .037758629
0307598 .127 -.0488615319357998 .0375301325240963 .127 -.0498528401156689 .03729
11149083737 .127 -.0508630346342492 .03704182917670855 .127 -.0518893634121948 .
03678212781087215 .127 -.05292866981648 .0365119761956391 .127 -.054327641841008
5 .036137761224612 .127 -.0557402215743378 .03574244392522175 .127 -.05697737978
97791 .0353779230454542 .127 -.0576829256645406 .03516433425024015 .127 -.058387
7038026879 .0349470530922868 .127 -.0592640535152111 .0346699792035264 .127 -.06
02968659897558 .034333579729752 .127 -.0612996637767332 .03399808988911575 .127
 -.0622612243007041 .0336683402578822 .127 -.0631703133412504 .03334917861970475
 .127 -.0638747872921796 .03309608498656055 .127 -.0644007380949157 .03290382656
343215 .127 -.0647750840605937 .03276531128875705 .127 -.0651272301912687 .03263
33494471778 .127 -.065569661118304 .03246524581808635 .127 -.0660833216183025 .0
322655491760383 .127 -.0666702375866891 .0320300427238114 .127 -.067163440970995
4 .03182637794118875 .127 -.0675771984938198 .0316526379830503 .127 -.0679011155
838424 .03151541393268665 .127 -.0682427753423538 .0313696947462124 .127 -.06860
54826829139 .03121427563410915 .127 -.068986083416357 .03105032951485095 .127 -.
069514492687651 .03082136381293625 .127 -.0702081431944936 .03051787289515175 .1
27 -.0710742660470421 .03013281135920345 .127 -.0719546451176663 .02973376624176
56 .127 -.0726837840362856 .02939540574764685 .127 -.0732544016605014 .029124821
45710465 .127 -.0736734561025287 .02892286936984625 .127 -.0740810916803204 .028
722844138252 .127 -.074474418966254 .02852578880278615 .127 -.0748553503561489 .
02833094406415405 .127 -.0753471960334703 .02807450896851255 .127 -.075933384840
1175 .02776054366151695 .127 -.0765954631521222 .0273954878562892 .127 -.0772207
73609077 .027043210771835 .127 -.0777151526740086 .0267611514376998 .127 -.07804
92690980046 .026570206783036 .127 -.0782371480947608 .02646299645694565 .127 -.0
785144823039137 .0263049146723879 .127 -.0789157885210674 .0260764057330052 .127
 -.0794319920537903 .02578005265416715 .127 -.079857864025331 .02553112928374375
 .127 -.0802032233206673 .02532527432563575 .127 -.0804664776590115 .02516608331
89367 .127 -.0807356898529061 .0250007416782278 .127 -.0810133629157403 .0248274
715270573 .127 -.0812974905375203 .0246476099419021 .127 -.0816822561815846 .024
4007551982526 .127 -.0821694040732484 .0240822444226246 .127 -.082748352100195 .
02369444092778315 .127 -.0832131289241366 .0233753004743722 .127 -.0835666067674
099 .02312761427771525 .127 -.0838201295825286 .02294732150209415 .127 -.0840619
593423207 .02277251227884645 .127 -.0843727061662653 .0225438552373792 .127 -.08
4745204770896 .02226184179108375 .127 -.0851136867391664 .0219718569326357 .127
 -.0854162093368035 .02172724560368075 .127 -.0856494021978546 .0215355762332950
5 .127 -.0858912986973147 .0213338184773719 .127 -.0861441113378567 .02112025182
535095 .127 -.086404855112002 .0208975584218145 .127 -.086759382426943 .02059182
80758787 .127 -.0872085200826128 .0201994365255692 .127 -.0877354352984953 .0197
319612726127 .127 -.0881465450995403 .01936169695824475 .127 -.0884478130113181
 .0190869990745332 .127 -.0886568884255673 .0188946226063584 .127 -.088846402893
7153 .0187180747000341 .127 -.0890799032063714 .01849642678990405 .127 -.0893471
69013943 .01823320225528795 .127 -.0896182387745343 .01794969446826225 .127 -.08
98583730460458 .0176873697324599 .127 -.0900548141972348 .0174674503677269 .127
 -.0902711773569563 .01722022878818505 .127 -.0905810005654312 .0168599883462740
5 .127 -.0910007232973144 .01636077196468695 .127 -.09153259229915 .015710262649
17775 .127 -.0920698977896415 .01503424782004375 .127 -.0925032289285031 .014471
3915861745 .127 -.0928296516722602 .01403489655685848 .127 -.0930227418350152 .0
1377079373421336 .127 -.0931691053299723 .01356662978170312 .127 -.0933095665619
527 .01336782076158588 .127 -.0934749777076904 .013128102466634 .127 -.093659088
4897155 .0128519949440453 .127 -.0938881541767663 .01249548421316684 .127 -.0941
489504588911 .0120644072046276 .127 -.0943899121733209 .01163201985839006 .127 -
.0945788850305961 .01127273459754904 .127 -.0947205801915368 .01099361214416508
 .127 -.0948640521264868 .01070195118418932 .127 -.0950109578354606 .01039521895
57743 .127 -.0951598526613826 .0100768507236039 .127 -.0953595033950652 .0096406
0887984584 .127 -.0956082722726913 .00908050264232865 .127 -.0958486310212172 .0
0851931466060156 .127 -.0960315633557745 .00808081231905196 .127 -.0961630067535
779 .00775995712304882 .127 -.0962876181823067 .00744993607320844 .127 -.0963848
256996836 .0072030611192831 .127 -.0964581041597146 .00701384491852987 .127 -.09
65274988096206 .0068322338352577 .127 -.0966073887926382 .00661735894517004 .127
 -.0966933790864011 .00637352893424231 .127 -.0967969123681198 .0060584036955064
1 .127 -.0968873907340868 .00574369883316543 .127 -.0969711215832533 .0053980529
6186538 .127 -.0970315617518745 .00511589154025751 .127 -.0970904532539025 .0048
0385180486685 .127 -.0971675684289012 .004340285745829555 .127 -.097263263403865
4 .003653441863666165 .127 -.0973690837160802 .002747254649593485 .127 -.0974455
742978887 .001990407450819445 .127 -.097497560227497 .001422571824100708 .127 -.
097531424152577 .001025196614905652 .127 -.0975596337322874 .000666178862119616
 .127 -.0975816486555278 .000355922962450014 .127 -.097594350866472 .00014756303
24558392 .127 -.0975996499767103 422631351156803e-19 .127 -.0976011922707267 733
526204617956e-20 .127 -.0976015050648561 -556778912932281e-26 .127 127 171 185 4
 1 1 1 1 1 1 1 1 1 1 1 1 1 1 1 1 1 1 1 1 1 1 1 1 1 1 1 1 1 1 1 1 1 1 1 1 1 1 1 1
 1 1 1 1 1 1 1 1 1 1 1 1 1 1 1 1 1 1 1 1 1 1 1 1 1 1 1 1 1 1 1 1 1 1 1 1 1 1 1 1
 1 1 1 1 1 1 1 1 1 1 1 1 1 1 1 1 1 1 1 1 1 1 1 1 1 1 1 1 1 1 1 1 1 1 1 1 1 1 1 1
 1 1 1 1 1 1 1 1 1 1 1 1 1 1 1 1 1 1 1 1 1 1 1 1 1 1 1 1 1 1 1 1 1 1 1 1 1 1 1 1
 1 1 1 1 1 1 1 4 0 0 128 171 186 0 .00941725 .0188345 .02825175 .037669 .0470862
5 .051794875 .0565035 .061212125 .06592075 .0682750625 .070629375 .0729836875 .0
75338 .080046625 .08475525 .089463875 .0941725 .098881125 .10358975 .1059440625
 .108298375 .1106526875 .113007 .1153613125 .117715625 .12242425 .127132875 .131
8415 .136550125 .14125875 .145967375 .150676 .155384625 .16009325 .164801875 .16
95105 .174219125 .17892775 .183636375 .188345 .193053625 .19776225 .202470875 .2
071795 .211888125 .21659675 .226014 .230722625 .2330769375 .23543125 .240139875
 .2448485 .249557125 .25426575 .258974375 .263683 .2660373125 .268391625 .270745
9375 .27310025 .277808875 .2825175 .287226125 .2895804375 .29193475 .2942890625
 .296643375 .2989976875 .301352 .306060625 .31076925 .315477875 .3201865 .322540
8125 .324895125 .3272494375 .32960375 .3319580625 .334312375 .339021 .343729625
 .34843825 .353146875 .3555011875 .35667834375 .3578555 .362564125 .36727275 .37
1981375 .3743356875 .37669 .3790443125 .381398625 .3837529375 .38610725 .3908158
75 .3955245 .400233125 .4025874375 .40494175 .4072960625 .409650375 .414359 .419
067625 .4214219375 .42377625 .4261305625 .428484875 .4308391875 .4331935 .437902
125 .44261075 .447319375 .4496736875 .452028 .4543823125 .456736625 .46144525 .4
66153875 .4685081875 .4708625 .4732168125 .475571125 .48027975 .484988375 .48969
7 .494405625 .4967599375 .49911425 .50029140625 .5014685625 .503822875 .50617718
75 .5085315 .513240125 .51794875 .5203030625 .522657375 .5250116875 .527366 .529
7203125 .532074625 .53678325 .541491875 .5438461875 .5462005 .5485548125 .550909
125 .55208628125 .5532634375 .55561775 .5579720625 .560326375 .565035 .567389312
5 .569743625 .5720979375 .57445225 .579160875 .5838695 .588578125 .5909324375 .5
9328675 .5956410625 .597995375 .6003496875 .60152684375 .601857247385657 ??68 15
7 224 0 187 136 151 0 +166 .00826664512000003 -368594044175552e-31 .127 -1 0 0 ?
-.0976015050648561 -556778912932281e-26 .127 ?.601857247385657 0 1 0 0 14 187 12
5 188 ?189 20 190 7 157 +0 0 189 20 26 68 136 223 0 189 131 157 191 +173 .008266
64512000003 -368594044175552e-31 .127 -1 0 0 ????0 1 0 .122872474559513 14 189 1
11 192 ?134 187 193 7 136 +0 0 134 187 26 141 191 115 191 191 136 137 255 115 23
6 0 3 194 95 195 +136 196 0 ?133 255 194 235 0 197 198 115 0 +115 .0083675665091
5031 .0438602894105385 .127 .00836756650915031 .0438602894105385 .127 0 1 141 19
5 194 195 195 115 134 196 0 0 0 0 0 0 +199 200 136 199 1 2 2 2 5 FFF1 201 202 20
3 135 200 1 0 45 4 201 .602437063319076 6.28318530717959 .602437063319076 0 127
 2 202 2 2 128 2 203 0 1 17 197 0 204 197 197 0 205 206 194 0 -137 198 234 0 3 2
07 194 208 +8 209 0 ?133 207 233 0 205 210 198 0 +198 .00836756650915031 .043860
2894105385 .127 .00836756650915031 .0438602894105385 .127 0 1 141 208 207 208 20
8 198 134 209 0 0 0 0 0 0 +211 212 136 211 1 2 2 2 5 FFF1 213 214 215 135 212 1
 0 45 4 213 .602437063319076 0 .602437063319076 6.28318530717959 127 2 214 2 2 1
28 2 215 0 1 17 205 0 216 205 205 0 197 206 207 0 +31 210 232 0 94 217 207 0 +.0
0851388245437217 -368594044175552e-31 .127 -1 0 0 0 0 1 .043860510879731 16 94 1
92 218 ?219 88 220 210 0 0 3 31 217 231 0 220 180 210 0 +.00826664512000008 -368
594044175552e-31 .127 -1 0 0 0 0 1 .04536 16 220 150 221 ?222 94 223 217 0 0 3 3
1 180 230 0 223 173 217 0 +.00826211724138675 -368594044175552e-31 .127 -1 0 0 0
 0 1 .0438600068339105 16 223 108 224 ?225 220 206 180 0 0 3 81 1 224 795 109 22
3 226 0 218 221 227 17 225 0 193 225 225 0 228 223 0 0 +16 206 106 229 1e-6 205
 223 148 0 0 0 3 81 1 229 797 109 206 230 0 221 231 232 16 148 374 112 ?69 206 1
39 141 0 0 3 81 1 112 803 109 148 233 0 107 234 235 17 69 0 236 237 47 66 238 14
8 0 239 +15 236 437 0 69 134 0 17 237 0 236 49 69 70 239 240 0 28 -17 47 0 236 6
9 49 82 43 48 0 238 +17 238 0 241 102 147 82 69 148 0 0 -17 239 0 135 77 73 66 2
37 240 0 147 +15 135 445 0 99 129 0 17 77 0 135 99 239 74 147 139 0 98 -17 73 0
 135 239 99 70 106 29 0 237 +16 240 332 111 ?239 242 104 243 0 0 3 17 147 0 241
 238 100 66 77 139 0 0 +15 241 305 0 238 150 0 17 100 0 241 147 102 74 42 101 0
 0 +17 102 0 241 100 238 13 38 242 0 0 -16 101 353 234 ?100 139 242 140 0 0 3 81
 1 234 804 109 101 244 0 112 245 246 16 242 389 245 ?38 101 240 149 0 0 3 81 1 2
45 805 109 242 247 0 234 146 248 17 38 0 37 43 31 82 102 242 0 47 +38 149 501 0
 242 243 140 0 +126 116 249 250 251 252 30 255 243 502 0 240 253 149 0 +.0168415
786329429 -.03 .14 0 0 1 50 116 495 0 89 0 130 254 +.0482702814042568 .03 .14 0
 -1 0 0 0 -1 40 3 249 0 1 3 .00580104184505159 .307822584814704 ??.0796989841755
708 .03 .1449114501078986 .0603022273398179 .03 .153739580782343 .01684157863294
29 .03 .160745133712883 41 1 250 L?.0796989841755708 .03 .1449114501078986 41 1
 251 L?.0168415786329429 .03 .160745133712883 204 12 252 4 .34631125806304 5.744
93897389248 -.00491145010789859 .031428702771314 .4358961918446935 5.55518689279
404 -.01373958078234296 .0120319459355611 .582719472811099 5.43910292278187 -.02
0745133712883 -.0314287027713139 14 89 478 255 ?150 97 37 7 116 +0 0 150 97 26 1
41 254 95 256 256 116 141 256 149 254 254 116 81 1 255 841 257 89 258 0 259 154
 260 14 97 474 259 ?89 129 96 7 130 -0 0 89 129 26 13 26 94 0 0 0 0 0 0 11 18 14
 18 195 261 ?20 0 262 7 21 +0 0 20 0 26 81 1 261 834 257 18 263 0 0 264 265 14 2
0 207 264 ?187 18 216 7 8 +0 0 187 18 26 15 262 252 0 219 18 266 17 219 0 262 21
9 219 0 267 94 0 0 +15 266 194 0 65 18 90 17 65 0 266 65 65 62 0 0 0 0 ?17 267 0
 268 267 267 0 219 94 0 0 -15 268 206 0 267 20 0 81 1 264 835 257 20 269 0 261 1
88 270 15 216 253 0 205 20 268 80 255 1 257 271 272 8015 0 0 0 0 3 5 0 0 0 FFFFT
FFFFFFFFF2 81 1 269 815 109 20 273 264 274 263 275 81 1 188 836 257 187 274 0 26
4 192 276 83 255 1 270 0 81 1 274 814 109 187 277 188 258 269 278 81 1 192 837 2
57 189 279 0 188 280 281 83 1 276 0 81 1 279 811 109 189 282 192 283 284 285 81
 1 280 838 257 134 286 0 192 133 287 83 1 281 0 14 134 466 280 ?129 189 236 7 13
1 +0 0 129 189 26 81 1 286 817 109 134 288 280 263 289 290 81 1 133 839 257 129
 284 0 280 259 291 83 1 287 0 81 1 284 812 109 129 292 133 279 258 293 81 1 259
 840 257 97 289 0 133 255 294 83 1 291 0 81 1 289 818 109 97 295 259 286 296 297
 83 1 294 0 80 1 109 298 299 9000 1 1 1 1 1 1 1 1 0 FFFFTFTFFFFFFF3 81 1 295 770
 300 97 301 289 302 303 304 81 1 296 819 109 155 305 306 289 0 307 84 255 32 297
 b9d316bfc84e92570389336b1014271614 155 153 306 ?0 150 308 7 151 -0 0 0 150 26 8
1 1 305 774 300 155 309 296 288 0 310 81 1 306 843 257 155 296 0 154 0 311 84 32
 307 9902c95fb4aa38ac03fcb90fd2476a9c81 1 154 842 257 150 283 0 255 306 312 83 1
 311 0 81 1 283 810 109 150 313 154 92 279 314 83 1 312 0 81 1 313 766 300 150 3
15 283 292 277 316 81 1 92 809 109 88 317 0 103 283 318 84 32 314 f13977862b9248
e7e8526506af1a148281 1 317 604 33 88 0 92 247 233 319 81 1 103 808 109 41 320 0
 114 92 321 84 32 318 831b9e2c3dc13720a42e75f6906d478981 1 320 586 33 41 0 103 3
22 323 324 81 1 114 807 109 29 325 0 146 103 326 84 32 321 086318d2748ac036dbe07
e1babf6effc81 1 325 602 33 29 0 114 85 247 327 81 1 146 806 109 139 85 0 245 114
 328 84 32 326 31a875660cf3fd707e7efae517ac34f881 1 85 601 33 139 0 146 35 325 3
29 84 32 328 5d62f6754a641ce07c9318ffc8205f0280 1 33 330 331 9000 0 0 0 0 3 6 0
 0 0 FFTFTFTTFFFFFF1 82 255 3 329 565 4 1 79 255 9 331 BTI/DetId81 1 247 603 33
 242 0 245 325 317 332 82 3 327 565 5 1 82 3 332 565 6 1 81 1 322 585 33 48 0 33
3 334 320 335 81 1 323 587 33 129 0 336 320 337 338 82 3 324 565 3 1 81 1 336 61
7 339 129 323 292 340 301 341 81 1 337 588 33 89 0 342 323 343 344 82 3 338 565
 0 2 81 1 342 619 339 89 337 302 301 315 345 81 1 343 589 33 134 0 340 337 346 3
47 82 3 344 565 1 2 81 1 340 616 339 134 343 288 348 336 349 81 1 346 590 33 97
 0 301 343 350 351 82 3 347 565 2 2 81 1 301 618 339 97 346 295 336 342 352 81 1
 350 591 33 150 0 315 346 353 354 82 3 351 565 3 2 81 1 315 620 339 150 350 313
 342 309 355 81 1 353 592 33 18 0 356 350 68 357 82 3 354 565 4 2 81 1 356 612 3
39 18 353 303 0 358 359 81 1 68 593 33 66 0 0 353 72 360 82 3 357 565 5 2 81 1 7
2 594 33 70 0 0 68 76 361 82 3 360 565 0 0 81 1 76 595 33 74 0 0 72 80 362 82 3
 361 565 1 0 81 1 80 596 33 78 0 0 76 45 363 82 3 362 565 2 0 81 1 45 597 33 82
 0 0 80 34 364 82 3 363 565 3 0 82 3 364 565 4 0 80 1 339 0 365 8001 0 0 0 0 3 5
 0 0 0 FFFFTFTFFFFFFF2 81 1 303 771 300 18 356 263 295 273 366 81 1 358 613 339
 20 367 273 356 368 369 83 3 359 .862745098039216 .937239642938888 .929411764705
882 81 1 367 264 33 20 0 358 370 371 372 81 1 273 772 300 20 358 269 303 288 373
 81 1 368 614 339 187 374 277 358 348 375 83 3 369 .862745098039216 .93723964293
8888 .929411764705882 81 1 374 266 33 187 0 368 371 376 377 81 1 277 767 300 187
 368 274 313 282 378 81 1 348 615 339 189 371 282 368 340 379 83 3 375 .86274509
8039216 .937239642938888 .929411764705882 81 1 371 265 33 189 0 348 367 374 380
 81 1 282 768 300 189 348 279 277 302 381 83 3 379 .862745098039216 .93723964293
8888 .929411764705882 80 1 300 33 382 9000 1 1 1 1 1 1 1 1 0 FFFFTFTFFFFFFF1 81
 1 302 769 300 89 342 258 282 295 383 82 1 381 999999 81 1 258 813 109 89 302 25
5 284 274 384 82 1 383 999999 84 32 384 617d0d27f5fab2ecda9501e851335e3079 14 38
2 SWEntUnchanged82 3 380 97 3 2 82 1 378 999999 81 1 376 268 33 3 0 385 374 386
 387 82 3 377 97 4 2 81 1 385 609 388 3 376 389 0 0 390 81 1 386 583 33 240 0 11
1 376 334 391 82 3 387 97 0 3 81 1 111 801 109 240 386 0 27 107 392 81 1 334 584
 33 104 0 231 386 322 393 82 3 391 565 0 1 16 104 341 231 ?98 240 41 253 0 0 3 8
1 1 231 798 109 104 334 0 229 333 394 82 3 393 565 1 1 81 1 333 799 109 48 322 0
 231 27 395 84 32 394 6475c705f2c55113398a40c3e5535fd916 48 371 333 ?47 41 0 396
 0 0 3 81 1 27 800 109 12 397 0 333 111 398 84 32 395 2d696a9072403e4c6458d17208
9150e281 1 397 606 33 12 0 27 233 244 399 84 32 398 427b56ce6ab8b14a6f780675d53e
f78c81 1 233 605 33 148 0 112 317 397 400 81 1 244 607 33 101 0 234 397 110 401
 82 3 399 565 9 1 81 1 110 608 33 93 0 107 244 0 402 82 3 401 565 10 1 82 3 402
 565 11 1 82 3 400 565 8 1 30 396 505 0 48 0 105 0 +.0168415786329429 .03 .14 0
 0 1 30 105 504 0 41 396 253 0 +.0796989841755708 .03 .14 0 0 1 30 253 503 0 104
 105 243 0 +.0796989841755708 -.03 .14 0 0 1 17 98 0 96 42 81 74 99 104 0 100 +1
7 99 0 135 73 77 78 98 104 0 106 -84 32 392 76e0a521dbdac8cb59054366d1e1b9df80 1
 388 403 404 8038 0 0 0 0 0 0 0 0 0 TTTTTTTTTTTTTF10 81 1 389 611 405 3 385 15 0
 0 406 98 255 10 390 67 101 110 116 101 114 32 80 111 100 80 1 405 339 407 8040
 0 0 0 0 3 5 0 0 0 TTTFFFFFFFFFFF2 81 2 15 786 408 3 389 5 0 0 409 410 83 3 406
 .917647058823529 .917647058823529 .917647058823529 80 2 408 411 412 8004 0 0 0
 0 3 5 0 0 0 FFTFFFFFFFFFFF2 3 83 1 409 7830.64 84 8 410 Kg/Cu M 79 16 412 SDL/T
YSA_DENSITY79 17 407 SDL/TYSA_COLOUR_279 14 404 SDL/TYSA_UNAME81 1 288 773 300 1
34 340 286 273 305 413 82 1 373 999999 82 1 413 999999 81 1 370 263 33 155 0 309
 414 367 415 82 3 372 97 2 2 81 1 309 621 339 155 370 305 315 0 416 81 1 414 261
 33 94 0 218 230 370 417 82 3 415 97 1 2 81 1 218 794 109 94 414 0 0 224 418 81
 1 230 260 33 206 0 229 226 414 419 82 3 417 97 3 1 81 1 226 259 33 223 0 224 42
0 230 421 82 3 419 97 2 1 81 1 420 258 33 220 0 221 64 226 422 82 3 421 97 1 1 8
1 1 221 796 109 220 420 0 224 229 423 81 1 64 257 33 62 0 0 50 420 424 82 3 422
 97 0 1 81 1 50 256 33 44 0 0 56 64 425 82 3 424 97 3 0 81 1 56 255 33 52 0 0 60
 50 426 82 3 425 97 2 0 81 1 60 254 33 58 0 0 0 56 427 82 3 426 97 1 0 82 3 427
 97 0 0 84 32 423 1627662b456c6f93fbec08f481ffc4df84 32 418 b5f6a48507ec52a1ed7a
7fe8d523cc4d83 3 416 .862745098039216 .937239642938888 .929411764705882 81 1 263
 816 109 18 303 261 269 286 428 82 1 366 999999 84 32 428 c086bad1ad8b7795ba4fc1
021ce2b04179 15 365 SDL/TYSA_COLOUR83 3 355 .862745098039216 .937239642938888 .9
29411764705882 83 3 352 .862745098039216 .937239642938888 .929411764705882 83 3
 349 .862745098039216 .937239642938888 .929411764705882 83 3 345 .86274509803921
6 .937239642938888 .929411764705882 81 1 292 765 300 129 336 284 0 313 429 83 3
 341 .862745098039216 .937239642938888 .929411764705882 82 1 429 999999 82 3 335
 565 2 1 82 3 319 565 7 1 82 1 316 999999 82 1 310 999999 15 308 250 0 57 155 43
0 17 57 0 308 57 57 52 0 0 0 0 ?15 430 152 0 222 155 0 17 222 0 430 222 222 0 43
1 220 0 0 +17 431 0 432 431 431 0 222 220 0 0 -15 432 251 0 431 150 241 82 1 304
 999999 79 15 299 UGS/ObjectState84 32 293 b01d174c1afb99794abe55424a29be8184 32
 290 1b3b36ddf8066d2e7342be7532b23aaf84 32 285 6fd3adb86b53d7f3671951b4d05458848
4 32 278 cd27a71bc52e19d39bbe6b4b7070540784 32 275 b5e31098d7b646aa6092d8303fd82
d1d79 21 272 SDL/TYSA_TRANSLUCENCY83 1 265 0 83 1 260 0 84 32 248 d49738ac9cb722
216a53ca36da2c44fa84 32 246 069dcd5e088f67a5a5b6140461b1d0b317 49 0 236 47 237 3
2 28 12 0 87 -17 28 0 90 106 87 70 49 12 0 0 +84 32 235 02d0d91ae6c92af446896044
a6db848f84 32 232 82389a23a21e6dbc14c97b160acd49e815 193 248 0 225 189 204 17 22
8 0 433 228 228 0 225 223 0 0 -15 433 124 0 228 187 0 15 204 110 0 197 189 0 84
 32 227 91243bab54c1022b82d108763035df4e15 190 249 0 51 187 433 17 51 0 190 51 5
1 44 0 0 0 0 ?141 181 136 181 181 173 136 182 3 4 3 2 5 FFF2 434 435 436 135 183
 2 0 45 12 434 .00836756650915031 .0438602894105385 .127 .00833238729744912 .043
86021340988565 .127 .00829723741000464 .0438601224368119 .127 .00826211723404732
 .0438600164230665 .127 127 4 435 4 4 0 0 128 4 436 .602437063319076 .602704 ??1
34 23 8 0 3 141 128 437 +438 439 141 163 21 163 163 128 136 164 3 171 3 169 6 FF
F2 440 441 442 135 165 2 0 45 513 440 .1141347953048562 -556780893041202e-26 .12
7 .1141344825107268 733526204611825e-20 .127 .1141329402167104 4226313511557155e
-20 .127 .114127641106472 .0001475630324558882 .127 .114114938895528 .0003559229
62449963 .127 .1140929239722874 .000666178862119558 .127 .114064714392577 .00102
5196614905772 .127 .114030850467497 .001422571824100642 .127 .1139788645378888 .
001990407450819545 .127 .1139023739560802 .002747254649593535 .127 .113796553643
8654 .00365344186366617 .127 .1137008586689012 .004340285745829675 .127 .1136237
434939026 .00480385180486663 .127 .1135648519918744 .0051158915402576 .127 .1135
044118232534 .00539805296186517 .127 .1134206809740868 .00574369883316556 .127 .
1133302026081198 .00605840369550638 .127 .113226669326401 .0063735289342423 .127
 .1131406790326382 .00661735894516953 .127 .1130607890496202 .00683223383525927
 .127 .1129913943997152 .00701384491852699 .127 .1129181159396798 .0072030611192
9844 .127 .1128209084225134 .00744993607260891 .127 .1126962969940694 .007759957
12090973 .127 .1125648535963404 .00808081231461623 .127 .112381921261281 .008519
31465213842 .127 .1121415625104408 .00908050262700605 .127 .111892793626893 .009
64060885495281 .127 .1116931428857286 .01007685068889576 .127 .1115442480526432
 .0103952189126288 .127 .1113973423352482 .010701951130545 .127 .111253870389317
6 .01099361208060018 .127 .1111121752144276 .01127273452660886 .127 .11092320233
51768 .01163201978089552 .127 .110682240587452 .01206440712587374 .127 .11042144
4266504 .01249548414165412 .127 .11019237854719 .0128519948817998 .127 .11000826
7741035 .01312810241261228 .127 .109842856575882 .01336782071504462 .127 .109702
3953290614 .0135666297414753 .127 .1095560318202106 .01377079369992522 .127 .109
3629416420592 .01403489652910266 .127 .1090365188775986 .014471391567687 .127 .1
086031877200214 .01503424781162745 .127 .1080658822178934 .0157102626521312 .127
 .1075340132146252 .01636077197956805 .127 .107114290489179 .0168599883728442 .1
27 .1068044672894662 .01722022882621905 .127 .1065881041372734 .0174674504162771
5 .127 .106391662995014 .01768736979272745 .127 .1061515287409218 .0179496945404
744 .127 .105880459011921 .01823320233424355 .127 .1056131932506992 .01849642686
082445 .127 .1053796929798014 .01871807475864035 .127 .1051901785433856 .0188946
226539398 .127 .1049811031592864 .01908699911023975 .127 .104679835278864 .01936
169698250235 .127 .1042687255054308 .01973196128695045 .127 .1037418103091024 .0
201994365324087 .127 .103292672661824 .0205918280788786 .127 .1029381453503782 .
0208975584229116 .127 .1026774015776042 .02112025182555995 .127 .102424588937381
6 .0213338184773167 .127 .1021826924378368 .02153557623330975 .127 .101949499576
8084 .02172724560367685 .127 .1016469769791636 .02197185693263795 .127 .10127849
5010897 .02226184179108295 .127 .1009059964062652 .02254385523737925 .127 .10059
5249582321 .02277251227884645 .127 .1003534198225286 .0229473215020942 .127 .100
09989700741 .0231276142777152 .127 .0997464191641366 .0233753004743722 .127 .099
2816423401951 .0236944409277831 .127 .0987026943132485 .0240822444226246 .127 .0
982155464215847 .02440075519825255 .127 .0978307807775204 .02464760994190205 .12
7 .0975466531557404 .02482747152705725 .127 .0972689800929061 .0250007416782278
 .127 .0969997678990116 .02516608331893665 .127 .0967365135606673 .0253252743256
3575 .127 .0963911542653311 .02553112928374375 .127 .0959652822937903 .025780052
65416715 .127 .0954490787610675 .0260764057330052 .127 .0950477725439136 .026304
91467238795 .127 .094770438334761 .0264629964569456 .127 .0945825593380047 .0265
70206783036 .127 .0942484429140087 .0267611514376998 .127 .0937540638490771 .027
043210771835 .127 .0931287533921222 .02739548785628925 .127 .0924666750801176 .0
2776054366151695 .127 .0918804862734703 .02807450896851255 .127 .091388640596148
9 .0283309440641541 .127 .0910077092062542 .02852578880278605 .127 .090614381920
3203 .02872284413825205 .127 .0902067463425287 .0289228693698463 .127 .089787691
9005015 .02912482145710465 .127 .0892170742762856 .02939540574764685 .127 .08848
79353576663 .0297337662417656 .127 .0876075562870423 .03013281135920345 .127 .08
67414334344933 .0305178728951519 .127 .086047782927652 .03082136381293585 .127 .
0855193736563555 .0310503295148516 .127 .0851387729229197 .03121427563410665 .12
7 .0847760655823326 .03136969474622175 .127 .084434405823923 .0315154139326514 .
127 .0841104887341287 .0316526379828442 .127 .0836967312115297 .0318263779406022
 .127 .0832035278269648 .0320300427224647 .127 .0826166118557324 .03226554917350
805 .127 .0821029513496389 .0324652458145548 .127 .0816605204145556 .03263334944
293105 .127 .0813083742760736 .0327653112840076 .127 .0809340283004438 .03290382
65583356 .127 .0804080774820202 .0330960849811625 .127 .0797036035075828 .033349
1786141737 .127 .0787945144345526 .03366834025246265 .127 .0778329538756476 .033
99808988401375 .127 .0768301560530495 .03433357972513205 .127 .0757973435439152
 .0346699791995274 .127 .0749209938048508 .03494705308890145 .127 .0742162156476
536 .0351643342474015 .127 .0735106697556636 .0353779230431738 .127 .07227351151
53758 .03574244392379125 .127 .0708609317652392 .0361377612239711 .127 .06946195
97349368 .03651197619565995 .127 .0684226533316854 .0367821278113392 .127 .06739
63245599847 .037041829177585 .127 .0663861300527447 .0372911149096242 .127 .0653
94821889049 .0375301325257276 .127 .0644266148539897 .03775862903266515 .127 .06
34721060916367 .03797812157809865 .127 .0625207448151369 .03819044513842955 .127
 .0615621990074371 .03839736321783615 .127 .0605860385234521 .0386006575170408 .
127 .0595818192473288 .03880209865526565 .127 .0585392686916546 .039003420431768
45 .127 .0574476447399436 .0392064164619395 .127 .0562982599672483 .039412564472
90625 .127 .0551041711184923 .03961988723453225 .127 .0538768354673053 .03982666
70704815 .127 .0526280460936814 .04003114180776455 .127 .051369451158087 .040231
5765321477 .127 .050112708112536 .04042623840921125 .127 .0488694667739561 .0406
133988363644 .127 .0478543956006264 .0407616759897918 .127 .0470607792057274 .04
08748174159635 .127 .0464762173610062 .04095672221493545 .127 .0459039297500709
 .041035437658971 .127 .0453447960747582 .04111083098106605 .127 .04479612241102
02 .04118327366590045 .127 .04407544935563865 .04127634855427055 .127 .043189022
1454507 .0413869246251242 .127 .04212929521885585 .0415129937598524 .127 .041054
47513922825 .04163503684881925 .127 .03994558620405965 .0417556305953187 .127 .0
387837862953307 .0418773342027975 .127 .0377559615950767 .04198179748241655 .127
 .03688859523382285 .0420684656649497 .127 .0362132707575826 .0421353230109878 .
127 .03551056588535455 .04220439004291715 .127 .0345354891881801 .04229965103943
36 .127 .0332494758806763 .04242368407552 .127 .0316090337862457 .04257783106525
47 .127 .02988211162123255 .0427345928395398 .127 .0274784897179949 .04294352252
270015 .127 .02431134432903655 .04319780928509755 .127 .02033691309987055 .04347
04726011177 .127 .01627543573879105 .04368920250620605 .127 .01229874282665472 .
0438296464311062 .127 .00973110966306892 .0438618997741819 .127 .008513882454372
17 .04386051087973095 .127 127 171 441 4 1 1 1 1 1 1 1 1 1 1 1 1 1 1 1 1 1 1 1 1
 1 1 1 1 1 1 1 1 1 1 1 1 1 1 1 1 1 1 1 1 1 1 1 1 1 1 1 1 1 1 1 1 1 1 1 1 1 1 1 1
 1 1 1 1 1 1 1 1 1 1 1 1 1 1 1 1 1 1 1 1 1 1 1 1 1 1 1 1 1 1 1 1 1 1 1 1 1 1 1 1
 1 1 1 1 1 1 1 1 1 1 1 1 1 1 1 1 1 1 1 1 1 1 1 1 1 1 1 1 1 1 1 1 1 1 1 1 1 1 1 1
 1 1 1 1 1 1 1 1 1 1 1 1 1 1 1 1 1 1 1 1 1 1 1 1 1 1 1 4 0 0 128 171 442 .000846
752614345441 .00117715625 .0023543125 .004708625 .0070629375 .00941725 .01177156
25 .014125875 .0188345 .023543125 .02825175 .0306060625 .032960375 .0353146875 .
037669 .042377625 .0447319375 .04708625 .0494405625 .05061771875 .051794875 .054
1491875 .0565035 .0588578125 .061212125 .06592075 .070629375 .0729836875 .075338
 .0776923125 .080046625 .0824009375 .08475525 .089463875 .0941725 .0965268125 .0
98881125 .1012354375 .10241259375 .10358975 .1059440625 .108298375 .113007 .1177
15625 .12242425 .127132875 .1294871875 .1318415 .1341958125 .136550125 .14125875
 .145967375 .1483216875 .150676 .1530303125 .155384625 .16009325 .164801875 .169
5105 .1718648125 .174219125 .1765734375 .17892775 .1812820625 .183636375 .188345
 .193053625 .1954079375 .19776225 .2001165625 .202470875 .2071795 .211888125 .21
659675 .2189510625 .221305375 .2236596875 .226014 .2283683125 .230722625 .235431
25 .240139875 .2448485 .24602565625 .2472028125 .249557125 .25426575 .258974375
 .263683 .268391625 .2707459375 .27310025 .2754545625 .277808875 .2801631875 .28
25175 .287226125 .29193475 .296643375 .301352 .3037063125 .306060625 .3084149375
 .31076925 .3131235625 .315477875 .3201865 .324895125 .32960375 .3319580625 .334
312375 .3366666875 .339021 .343729625 .34843825 .353146875 .3578555 .362564125 .
36727275 .3696270625 .371981375 .37669 .38610725 .390815875 .3955245 .400233125
 .40494175 .409650375 .414359 .419067625 .42377625 .428484875 .4331935 .43790212
5 .44261075 .447319375 .452028 .456736625 .46144525 .466153875 .4708625 .4755711
25 .48027975 .484988375 .4873426875 .489697 .4920513125 .494405625 .4967599375 .
49911425 .503822875 .5085315 .513240125 .51794875 .522657375 .527366 .5297203125
 .532074625 .5344289375 .53678325 .541491875 .5462005 .550909125 .55561775 .5650
35 .57445225 .5838695 .59328675 .602116321600879 ??141 437 8 437 437 23 136 438
 3 4 3 2 5 FFF2 443 444 445 135 439 2 0 45 12 443 .00851388244620023 .0438605191
921121 .127 .00846505491864803 .0438604711895025 .127 .00841628259685796 .043860
3946560596 .127 .00836756650915031 .0438602894105385 .127 127 4 444 4 4 0 0 128
 4 445 .602067410045695 .602437063319076 ??141 159 138 152 152 126 15 156 166 0
 61 150 432 17 61 0 156 61 61 58 0 0 0 0 ?141 127 95 446 446 21 141 446 24 127 1
27 21 40 4 117 0 1 4 .00768256063515179 .291134716984342 ??.0796989841755707 .03
 .1415669952123974 .0673838265618344 .03 .1487313058577324 .0263666844854532 .03
 .1578493767846915 .0168415786329429 .03 .1587077691113845 41 1 118 L?.079698984
1755707 .03 .1415669952123974 41 1 119 L?.0168415786329429 .03 .1587077691113845
 204 16 120 4 .3436974074577845 5.8311510217369 -.001566995212397365 .0314287027
713139 .4003033609224725 5.65628568360326 -.00873130585773238 .0191135451575776
 .559918103489519 5.48382937345632 -.0178493767846915 -.0219035969188036 .582556
782343163 5.47011909912266 -.0187077691113845 -.0314287027713139 84 32 113 07784
dc000ae5c691a701c62c10681ed82 3 86 565 7 0 82 3 46 565 5 0 82 3 36 565 6 0 19 19
 81 0 3 0 11 7 S0 141 22 198 22 22 8 74 4 CI16 index_map_offset0 0 1 dCCZ20 17 9
 0 0 110 385 389 309 305 15 296 306 5 0 0 0 0 0 0 0 0 0 0 0 80 1 14 447 448 9000
 0 0 0 0 3 5 0 0 0 FFTFFFFFFFFFFF1 82 1 16 15 79 24 448 UG2/BODY_COLOR_ATTRIBUTE
1 0 
