**ABCDEFGHIJKLMNOPQRSTUVWXYZabcdefghijklmnopqrstuvwxyz**************************
**PARASOLID !"#$%&'()*+,-./:;<=>?@[\]^_`{|}~0123456789**************************
**PART1;
MC=x64/Windows NT;
MC_MODEL=genuineintel family 6 model 14 stepping 10, intel(r) core(tm) i7-9750h cpu @ 2.60ghz;
MC_ID=laptop-4ks723e7;
OS=windows nt (x64);
OS_RELEASE=6.3 windows 10 home (build 22000) ;
FRU=mdc_ugii_v7.0_djl_can_vrh;
APPL=unigraphics;
SITE=unknown;
USER=chare;
FORMAT=text;
GUISE=transmit;
KEY=Body_mold;
FILE=C:\Users\chare\Documents\RPI\Master's Project\CAD\Body_mold.x_t;
DATE=30-dec-2021;
**PART2;
SCH=SCH_3201212_32001;
USFLD_SIZE=0;
**PART3;
**END_OF_HEADER*****************************************************************
T51 : TRANSMIT FILE created by modeller version 320121223 SCH_3201212_32001_1300
6229 0 10 20 CCCCCCCI4 mesh1006 0 I8 polyline1008 0 CCCCCCCCCCA16 mesh_offset_da
ta206 0 Z1 2 0 0 0 0 0 0 0 0 0 1e3 1e-8 0 0 0 1 0 1 2 0 11 255 2 1 0 1 3 4 1 0 0
 0 0 12 34 CCCCCCI4 mesh1006 0 I8 polyline1008 0 CCCCCCCDI5 owner1040 0 CCCCCCI1
3 boundary_mesh1006 0 I17 boundary_polyline1008 0 CCCA16 index_map_offset0 0 1 d
A9 index_map82 0 A17 node_id_index_map82 0 A20 schema_embedding_map82 0 A5 child
12 0 A14 lowest_node_id0 0 1 dA16 mesh_offset_data206 0 Z3 752 5 6 0 0 0 0 0 0 1
e3 1e-8 2 0 0 1 0 1 1 7 8 9 10 0 0 11 12 13 0 0 0 0 0 0 0 100 255 4 2 2 0 0 1 0
 0 0 1 0 0 0 1 0 0 0 1 0 ?81 255 1 5 752 14 3 15 0 0 0 16 70 11 CI9 list_type0 0
 1 uI10 notransmit0 0 1 lCCCDCCDI12 finger_index0 0 1 dI12 finger_block1012 0 CZ
6 0 4 T3 0 0 10 20 1 17 17 13 255 7 5 0 3 0 18 0 0 19 0 68 255 8 101 0 20 21 0 0
 +22 .00826664512000003 -368594044175552e-31 .127 -1 0 0 ?-.09910259 -3685940441
75552e-31 .127 ?.602704 0 1 0 0 134 255 9 120 0 3 22 0 23 +24 25 29 255 10 129 0
 26 27 0 -.1174277396549042 .075 .177 19 8 CCCCCCCA5 owner12 0 Z11 3 0 3 19 0 28
 V0 16 255 12 42 29 ?30 0 31 32 0 0 3 18 255 13 64 33 34 0 35 36 ?3 81 1 33 487
 37 13 0 0 38 39 40 17 255 34 0 41 42 43 13 30 12 0 44 -18 35 59 45 46 13 47 48
 ?3 29 36 121 0 13 49 50 .00826664512000008 -.04536 .127 29 49 420 0 51 52 36 .1
1563588024 -368594044175552e-31 .127 29 50 126 0 53 36 48 .1325722603450958 .075
 .177 18 53 53 54 55 47 26 50 ?3 29 48 127 0 35 50 27 .1325722603450958 -.075 .1
77 29 27 128 0 47 48 10 -.1174277396549042 -.075 .177 18 47 57 56 57 35 53 27 ?3
 81 1 56 58 37 47 0 0 54 45 58 17 57 0 59 46 60 47 61 62 0 63 +15 255 59 86 0 60
 64 0 17 46 0 59 65 57 35 66 67 0 68 +17 60 0 59 57 65 26 69 70 0 0 -17 61 0 71
 72 63 26 57 62 0 60 -16 62 26 73 ?57 67 74 75 0 0 3 17 63 0 71 61 76 47 77 78 0
 66 -15 71 77 0 72 79 0 17 76 0 71 63 72 80 81 82 0 0 +17 77 0 83 84 66 80 63 78
 0 85 +16 78 20 86 ?77 87 88 89 0 0 3 17 66 0 83 77 68 47 46 67 0 0 -15 83 80 0
 77 90 0 17 68 0 83 66 84 35 91 74 0 92 -16 67 28 93 ?46 94 62 95 0 0 3 81 1 93
 720 96 67 97 0 98 99 100 16 94 30 101 ?102 103 67 104 0 0 3 30 255 95 115 0 67
 105 75 0 +.00757226034509576 -.075 .177 1 0 0 30 105 114 0 87 106 95 0 +.132572
2603450958 0 .177 0 -1 0 30 75 116 0 62 95 107 0 +-.1174277396549042 0 .177 0 -1
 0 30 107 117 0 70 75 108 0 +.00757226034509576 .075 .177 1 0 0 16 70 10 109 ?69
 110 111 107 0 0 3 31 255 108 118 0 112 107 22 0 +.00826664512000008 -3685940441
75552e-31 .127 -1 0 0 0 0 1 .04536 16 112 36 113 ?114 31 103 108 0 0 3 134 22 11
9 0 3 108 9 115 +116 117 141 255 115 8 115 115 22 136 255 116 3 22 3 20 6 FFF2 1
18 119 120 135 255 117 2 0 45 255 66 118 .00826664512000008 .04536 .127 -.001285
19110399994 .045388833168 .127 -.01911134652799995 .04373430297599995 .127 -.029
12921542399995 .04266998803199995 .127 -.04142672201599995 .04073096966399995 .1
27 -.049154685056 .03905714568 .127 -.0578417503519999 .03681339648 .127 -.06544
46753599999 .03416462548799995 .127 -.0687514778239999 .03280135252799995 .127 -
.074938838528 .03009374121599995 .127 -.078838420592 .027839060256 .127 -.081444
939584 .026372940384 .127 -.0846508217599999 .02424585811199995 .127 -.086783806
208 .02258815272 .127 -.0896773128799999 .02002317743999995 .127 -.091157030672
 .018573164736 .127 -.094603335968 .01434612547199998 .127 -.096219964352 .01150
405804799996 .127 -.09793280264 .00748346625599998 .127 -.098710075808 .00510985
977599998 .127 -.099080542016 .000664916447999962 .127 -.09910259 -3685940441755
52e-31 .127 127 255 22 119 4 1 1 1 1 1 1 1 1 1 1 1 1 1 1 1 1 1 1 4 0 0 128 255 2
2 120 0 .068678 .111075 .155991 .193249 .232686 .269236 .294366 .328059 .356044
 .378624 .403824 .426036 .451005 .470622 .50047 .525248 .551506 .574201 .602704
 ??81 1 113 723 96 112 121 0 86 122 123 17 114 0 124 102 125 126 127 112 0 0 +16
 31 39 128 ?129 12 112 130 0 0 3 16 103 33 131 ?125 112 94 132 0 0 3 81 1 131 70
6 96 103 133 0 109 134 135 17 125 0 124 114 102 13 136 103 0 0 +134 132 103 0 10
3 104 130 0 +137 138 134 104 102 0 94 139 132 0 -140 141 134 130 104 0 31 132 32
 0 -142 143 136 137 3 22 3 20 6 FFF2 144 145 146 135 138 2 0 45 66 144 .11563588
024 -368594044175552e-31 .127 .115613832256 -.000664916448000036 .127 .115243366
048 -.00510985977600003 .127 .11446609288 -.00748346625600003 .127 .112753254592
 -.01150405804800002 .127 .111136625872 -.01434612547200002 .127 .107690320576 -
.01857316473600005 .127 .10621060312 -.02002317744 .127 .103317096448 -.02258815
272000005 .127 .101184112 -.02424585811200005 .127 .097978229824 -.0263729403840
0005 .127 .0953717108320001 -.02783906025600005 .127 .091472128768 -.03009374121
600005 .127 .0852847680640001 -.03280135252800005 .127 .0819779656000001 -.03416
462548800005 .127 .074375040256 -.03681339648000005 .127 .0656879749600001 -.039
05714568000005 .127 .057960012256 -.04073096966400005 .127 .045662505328 -.04266
998803200005 .127 .035644636768 -.04373430297600005 .127 .0178184813440001 -.045
388833168 .127 .00826664512000008 -.04536 .127 127 22 145 4 1 1 1 1 1 1 1 1 1 1
 1 1 1 1 1 1 1 1 4 0 0 128 22 146 0 .028503 .051198 .077456 .102234 .132082 .151
699 .176668 .19888 .22408 .24666 .274645 .308338 .333468 .370018 .409455 .446713
 .491629 .534026 .602704 ??134 32 105 0 12 130 147 0 +148 149 136 142 3 22 3 20
 6 FFF2 150 151 152 135 143 2 0 45 66 150 .00826664512000008 .04536 .127 -.00128
519110399994 .045388833168 .127 -.01911134652799995 .04373430297599995 .127 -.02
912921542399995 .04266998803199995 .127 -.04142672201599995 .04073096966399995 .
127 -.049154685056 .03905714568 .127 -.0578417503519999 .03681339648 .127 -.0654
446753599999 .03416462548799995 .127 -.0687514778239999 .03280135252799995 .127
 -.074938838528 .03009374121599995 .127 -.078838420592 .027839060256 .127 -.0814
44939584 .026372940384 .127 -.0846508217599999 .02424585811199995 .127 -.0867838
06208 .02258815272 .127 -.0896773128799999 .02002317743999995 .127 -.09115703067
2 .018573164736 .127 -.094603335968 .01434612547199998 .127 -.096219964352 .0115
0405804799996 .127 -.09793280264 .00748346625599998 .127 -.098710075808 .0051098
5977599998 .127 -.099080542016 .000664916447999962 .127 -.09910259 -368594044175
552e-31 .127 127 22 151 4 1 1 1 1 1 1 1 1 1 1 1 1 1 1 1 1 1 1 4 0 0 128 22 152 0
 .068678 .111075 .155991 .193249 .232686 .269236 .294366 .328059 .356044 .378624
 .403824 .426036 .451005 .470622 .50047 .525248 .551506 .574201 .602704 ??30 147
 106 0 88 32 89 0 +-.1174277396549042 .075 .177 0 0 -1 136 148 3 22 3 20 6 FFF2
 153 154 155 135 149 2 0 45 66 153 .00826664512000008 -.04536 .127 -.00128519110
399994 -.045388833168 .127 -.01911134652799995 -.04373430297600005 .127 -.029129
21542399995 -.04266998803200005 .127 -.04142672201599995 -.04073096966400005 .12
7 -.049154685056 -.03905714568000005 .127 -.0578417503519999 -.03681339648000005
 .127 -.0654446753599999 -.03416462548800005 .127 -.0687514778239999 -.032801352
52800005 .127 -.074938838528 -.03009374121600005 .127 -.078838420592 -.027839060
25600005 .127 -.081444939584 -.02637294038400005 .127 -.0846508217599999 -.02424
585811200005 .127 -.086783806208 -.02258815272000005 .127 -.0896773128799999 -.0
2002317744000005 .127 -.091157030672 -.01857316473600005 .127 -.094603335968 -.0
1434612547200004 .127 -.096219964352 -.01150405804800004 .127 -.09793280264 -.00
748346625600005 .127 -.098710075808 -.00510985977600005 .127 -.099080542016 -.00
0664916448000036 .127 -.09910259 -368594044175552e-31 .127 127 22 154 4 1 1 1 1
 1 1 1 1 1 1 1 1 1 1 1 1 1 1 4 0 0 128 22 155 0 .068678 .111075 .155991 .193249
 .232686 .269236 .294366 .328059 .356044 .378624 .403824 .426036 .451005 .470622
 .50047 .525248 .551506 .574201 .602704 ??16 88 16 156 ?72 78 110 147 0 0 3 30 8
9 107 0 78 147 157 0 +-.1174277396549042 -.075 .177 0 0 -1 30 157 108 0 74 89 10
6 0 +.1325722603450958 -.075 .177 0 0 -1 16 74 24 158 ?91 62 87 157 0 0 3 30 106
 109 0 110 157 105 0 +.1325722603450958 .075 .177 0 0 -1 16 110 12 134 ?159 88 7
0 106 0 0 3 81 1 134 707 96 110 160 0 131 158 161 17 159 0 162 163 69 164 55 110
 0 165 +15 162 74 0 159 18 0 17 163 0 162 166 159 167 168 169 0 81 -17 69 0 162
 159 166 53 60 70 0 65 +18 164 324 170 159 171 51 172 ?3 17 55 0 173 92 165 53 1
59 110 0 69 -17 165 0 173 55 91 164 174 175 0 168 -15 173 83 0 91 176 0 17 91 0
 173 165 92 171 68 74 0 174 +17 174 0 177 85 168 171 165 175 0 84 +16 175 277 17
8 ?174 179 169 180 0 0 3 17 168 0 177 174 81 164 163 169 0 0 +15 177 377 0 168 1
81 182 17 81 0 177 168 85 167 76 82 0 0 -16 169 274 183 ?168 175 0 184 0 0 3 81
 1 183 709 96 169 185 0 158 128 186 30 184 419 0 169 0 180 0 +.00757226034509576
 .075 .123 1 0 0 30 180 418 0 175 184 187 0 +.1325722603450958 0 .123 0 -1 0 30
 187 417 0 179 180 188 0 +.00757226034509576 -.075 .123 1 0 0 16 179 256 189 ?84
 82 175 187 0 0 3 30 188 416 0 82 187 190 0 +-.1174277396549042 0 .123 0 -1 0 16
 82 262 191 ?76 192 179 188 0 0 3 134 190 415 0 192 188 193 194 -195 196 16 192
 222 197 ?198 199 82 190 0 0 3 134 193 414 0 199 190 200 201 -202 203 141 194 20
4 194 194 190 136 195 3 22 3 20 6 FFF2 205 206 207 135 196 2 0 45 66 205 .115635
88024 -368594044175552e-31 .123 .115613832256 .000664916447999962 .123 .11524336
6048 .00510985977599996 .123 .11446609288 .00748346625599996 .123 .112753254592
 .01150405804799994 .123 .111136625872 .01434612547199996 .123 .107690320576 .01
857316473599995 .123 .10621060312 .02002317743999995 .123 .103317096448 .0225881
5271999995 .123 .101184112 .02424585811199995 .123 .097978229824 .02637294038399
995 .123 .0953717108320001 .02783906025599995 .123 .091472128768 .03009374121599
995 .123 .0852847680640001 .03280135252799995 .123 .0819779656000001 .0341646254
8799995 .123 .074375040256 .03681339647999995 .123 .0656879749600001 .0390571456
7999995 .123 .057960012256 .04073096966399995 .123 .045662505328 .04266998803199
995 .123 .035644636768 .04373430297599995 .123 .0178184813440001 .045388833168 .
123 .00826664512000008 .04536 .123 127 22 206 4 1 1 1 1 1 1 1 1 1 1 1 1 1 1 1 1
 1 1 4 0 0 128 22 207 0 .028503 .051198 .077456 .102234 .132082 .151699 .176668
 .19888 .22408 .24666 .274645 .308338 .333468 .370018 .409455 .446713 .491629 .5
34026 .602704 ??67 255 204 390 0 208 209 210 0 -190 0 0 1 .01064900131935908 14
 255 208 342 211 ?212 64 213 7 204 +0 0 212 64 28 67 209 391 0 212 214 204 0 -19
3 0 0 1 .01064900131935294 50 255 210 95 0 18 204 215 0 +.00757226034509576 .075
 .177 0 1 0 0 0 1 14 18 72 216 ?79 0 162 7 210 +0 0 79 0 28 50 215 96 0 79 210 2
17 0 +-.1174277396549042 0 .177 1 0 0 0 0 -1 14 79 75 218 ?90 18 71 7 215 -0 0 9
0 18 28 50 217 97 0 90 215 219 0 +.00757226034509576 -.075 .177 0 1 0 0 0 1 14 9
0 78 220 ?176 79 83 7 217 -0 0 176 79 28 50 219 98 0 176 217 221 0 +.13257226034
50958 0 .177 1 0 0 0 0 -1 14 176 81 222 ?64 90 173 7 219 +0 0 64 90 28 50 221 99
 0 64 219 21 0 +.00757226034509576 0 .177 0 0 1 1 0 0 14 64 84 223 ?208 176 59 7
 221 +0 0 208 176 28 68 21 100 0 224 221 8 0 +9 .00826664512000003 -368594044175
552e-31 .127 -1 0 0 .11563588024 -368594044175552e-31 .127 ?0 ?0 1 0 0 14 224 87
 225 ?20 181 124 7 21 +0 0 20 181 28 81 1 225 750 226 224 227 0 228 229 230 14 2
0 91 229 ?0 224 231 7 8 +0 0 0 224 28 14 181 374 228 ?224 232 177 7 233 -0 0 224
 232 28 15 124 90 0 102 224 0 13 28 4 0 0 0 0 0 0 11 18 17 102 0 124 125 114 51
 234 94 0 0 +18 51 312 235 236 164 237 49 ?3 17 234 0 213 238 236 126 102 94 0 1
29 -15 213 345 0 234 208 0 17 238 0 213 198 234 239 240 111 0 241 -17 236 0 213
 234 198 51 242 243 0 136 +18 126 316 39 240 237 0 244 ?3 17 129 0 231 127 30 12
6 245 31 0 114 +15 231 94 0 129 20 0 17 127 0 231 30 129 13 114 112 0 125 -17 30
 0 231 129 127 237 34 12 0 0 +17 245 0 246 247 240 237 129 31 0 30 -15 246 349 0
 245 212 0 17 247 0 246 248 245 249 43 250 0 251 -17 240 0 246 245 248 126 238 1
11 0 234 +18 237 320 38 43 51 126 52 ?3 81 1 38 486 37 237 0 0 235 33 252 17 43
 0 41 34 253 237 247 250 0 245 +29 52 422 0 237 244 49 -.09910259 -3685940441755
52e-31 .127 29 244 423 0 126 254 52 .00826664512000008 .04536 .127 29 254 428 0
 255 256 244 .11563588024 -368594044175552e-31 .123 18 255 334 257 242 26 258 25
4 ?3 29 256 429 0 258 259 254 .00826664512000008 -.04536 .123 18 258 318 260 42
 255 249 256 ?3 29 259 430 0 249 261 256 -.09910259 -368594044175552e-31 .123 18
 249 314 262 247 258 239 259 ?3 29 261 431 0 239 263 259 .00826664512000008 .045
36 .123 18 239 310 264 238 249 167 261 ?3 29 263 432 0 167 265 261 -.11742773965
49042 .075 .123 18 167 330 266 72 239 80 263 ?3 29 265 433 0 80 267 263 -.117427
7396549042 -.075 .123 18 80 326 268 77 167 171 265 ?3 29 267 434 0 171 172 265 .
1325722603450958 -.075 .123 18 171 338 269 91 80 164 267 ?3 29 172 435 0 164 0 2
67 .1325722603450958 .075 .123 81 1 269 339 37 171 0 0 257 270 271 80 255 1 37 2
72 273 9000 0 0 0 0 3 6 0 0 0 FFTFTFTTFFFFFF1 81 1 257 335 37 255 0 0 266 269 27
4 81 1 270 344 37 208 0 275 269 276 277 82 255 3 271 325 7 0 81 1 275 509 278 20
8 270 279 280 281 282 81 1 276 348 37 212 0 281 270 283 284 82 3 277 325 5 2 14
 212 346 285 ?286 208 246 7 209 +0 0 286 208 28 81 1 281 510 278 212 276 287 275
 288 289 81 1 283 352 37 286 0 288 276 290 291 82 3 284 325 7 2 14 286 350 292 ?
232 212 41 7 214 +0 0 232 212 28 81 1 288 511 278 286 283 293 281 294 295 81 1 2
90 372 37 232 0 294 283 296 297 82 3 291 325 6 2 14 232 370 298 ?181 286 299 7 3
00 +0 0 181 286 28 81 1 294 512 278 232 290 301 288 302 303 81 1 296 376 37 181
 0 302 290 304 305 82 3 297 325 4 2 81 1 302 513 278 181 296 306 294 307 308 81
 1 304 484 37 3 0 309 296 235 310 82 3 305 325 9 2 81 1 309 501 311 3 304 312 0
 0 313 81 1 235 485 37 51 0 0 304 38 314 82 3 310 324 0 3 82 3 314 326 0 0 80 1
 311 315 316 8038 0 0 0 0 0 0 0 0 0 TTTTTTTTTTTTTF10 81 1 312 503 317 3 309 318
 0 0 319 98 255 4 313 109 111 108 100 80 1 317 278 320 8040 0 0 0 0 3 5 0 0 0 TT
TFFFFFFFFFFF2 81 2 318 693 321 3 312 15 0 0 322 323 83 255 3 319 .76862745098039
2 .886274509803922 .952941176470588 80 2 321 324 325 8004 0 0 0 0 3 5 0 0 0 FFTF
FFFFFFFFFF2 3 81 1 15 739 326 3 318 5 0 0 327 83 1 322 7830.64 84 255 8 323 Kg/C
u M 80 1 326 328 329 9000 0 0 0 0 3 5 0 0 0 FFTFFFFFFFFFFF1 82 1 327 8 79 255 7
 329 body_id79 16 325 SDL/TYSA_DENSITY79 17 320 SDL/TYSA_COLOUR_279 14 316 SDL/T
YSA_UNAME80 1 278 0 330 8001 0 0 0 0 3 5 0 0 0 FFFFTFTFFFFFFF2 81 1 306 676 331
 181 302 332 333 287 334 81 1 307 514 278 224 335 336 302 337 338 83 3 308 .7647
05882352941 .87843137254902 .94508278019379 81 1 335 137 37 224 0 307 121 339 34
0 81 1 336 674 331 224 307 227 341 333 342 81 1 337 515 278 20 339 333 307 0 343
 83 3 338 .764705882352941 .87843137254902 .94508278019379 81 1 339 138 37 20 0
 337 335 344 345 81 1 333 675 331 20 337 346 336 306 347 83 3 343 .7647058823529
41 .87843137254902 .94508278019379 80 1 331 37 348 9000 1 1 1 1 1 1 1 1 0 FFFFTF
TFFFFFFF1 81 1 346 736 96 20 333 229 349 350 351 82 1 347 999999 80 1 96 352 353
 9000 1 1 1 1 1 1 1 1 0 FFFFTFTFFFFFFF3 81 1 229 751 226 20 346 0 225 0 354 81 1
 349 735 96 64 341 223 355 346 356 81 1 350 737 96 232 301 298 346 0 357 84 32 3
51 449f9bdd423fb5cabbbae78075e7930381 1 301 679 331 232 294 350 293 0 358 81 1 2
98 748 226 232 350 0 292 228 359 84 32 357 6f592bc754e8549c83f4a93bb60930f280 1
 226 360 361 8015 0 0 0 0 3 5 0 0 0 FFFFTFFFFFFFFF2 81 1 292 747 226 286 362 0 2
85 298 363 81 1 228 749 226 181 332 0 298 225 364 83 1 359 0 81 1 332 728 96 181
 306 228 365 366 367 83 1 364 0 81 1 365 727 96 90 368 220 369 332 370 81 1 366
 729 96 212 287 285 332 371 372 84 32 367 3f483f4a48d4620c7128dc4472bf664481 1 2
87 677 331 212 281 366 306 293 373 81 1 285 746 226 212 366 0 211 292 374 81 1 3
71 730 96 176 375 222 366 227 376 84 32 372 a1afeaa34e898acb38b0f370a6a175d981 1
 375 672 331 176 377 371 368 341 378 81 1 222 743 226 176 371 0 220 223 379 81 1
 227 731 96 224 336 225 371 362 380 84 32 376 3f50aa085124bcbfecbc812a61f2412281
 1 362 732 96 286 293 292 227 381 382 84 32 380 6d36637c8325b9b846c0667357ed0ec5
81 1 293 678 331 286 288 362 287 301 383 81 1 381 733 96 79 384 218 362 355 385
 84 32 382 22a4b3bd251248667b15c03acd6092be81 1 384 670 331 79 386 381 387 368 3
88 81 1 218 741 226 79 381 0 216 220 389 81 1 355 734 96 18 387 216 381 349 390
 84 32 385 a10b0171160c3aa8aa5df9a6b8e54d3a81 1 387 669 331 18 391 355 279 384 3
92 81 1 216 740 226 18 355 0 0 218 393 84 32 390 94cf40849d21bc84fb525c00f130f55
c83 1 393 0 81 1 391 504 278 18 394 387 0 386 395 81 1 279 668 331 208 275 369 0
 387 396 82 1 392 999999 81 1 369 726 96 208 279 211 73 365 397 82 1 396 999999
 81 1 211 745 226 208 369 0 223 285 398 81 1 73 725 96 62 399 0 122 369 400 84 3
2 397 0bb5e33bb4dff17cd57b5d0d318ee89081 1 399 27 37 62 0 73 401 97 402 81 1 122
 724 96 243 403 0 113 73 404 84 32 400 280865673fd5344d6a139e764a4683f216 243 22
5 122 ?236 405 406 407 0 0 3 81 1 403 227 37 243 0 122 344 408 409 84 32 404 45a
6a290fc7398ecf1d3bb22640167b281 1 344 224 37 192 0 197 339 403 410 81 1 408 230
 37 199 0 99 403 411 412 82 3 409 325 12 1 16 199 228 99 ?248 413 192 193 0 0 3
 81 1 99 721 96 199 408 0 93 86 414 81 1 411 233 37 111 0 415 408 416 417 82 3 4
12 325 23 1 16 111 231 415 ?240 70 250 139 0 0 3 81 1 415 712 96 111 411 0 191 4
18 419 81 1 416 236 37 413 0 420 411 421 422 82 3 417 325 15 1 16 413 234 420 ?2
53 406 199 200 0 0 3 81 1 420 715 96 413 416 0 101 423 424 81 1 421 239 37 250 0
 98 416 425 426 82 3 422 325 21 1 16 250 237 98 ?43 111 405 427 0 0 3 81 1 98 71
9 96 250 421 0 189 93 428 81 1 425 258 37 179 0 189 421 429 430 82 3 426 325 13
 1 81 1 189 718 96 179 425 0 431 98 432 81 1 429 264 37 82 0 191 425 433 434 82
 3 430 325 7 1 81 1 191 711 96 82 429 0 128 415 435 81 1 433 270 37 406 0 418 42
9 436 437 82 3 434 325 9 1 16 406 268 418 ?438 243 413 439 0 0 3 81 1 418 713 96
 406 433 0 415 101 440 81 1 436 273 37 405 0 431 433 185 441 82 3 437 325 17 1 1
6 405 271 431 ?44 250 243 442 0 0 3 81 1 431 717 96 405 436 0 423 189 443 81 1 1
85 276 37 169 0 183 436 444 445 82 3 441 325 14 1 81 1 444 279 37 175 0 178 185
 264 446 82 3 445 325 5 1 81 1 178 702 96 175 444 0 156 29 447 81 1 264 311 37 2
39 0 0 444 262 448 82 3 446 325 11 1 81 1 262 315 37 249 0 0 264 260 449 82 3 44
8 325 15 0 81 1 260 319 37 258 0 0 262 170 450 82 3 449 325 11 0 81 1 170 325 37
 164 0 0 260 268 451 82 3 450 325 13 0 81 1 268 327 37 80 0 0 170 266 452 82 3 4
51 325 3 0 81 1 266 331 37 167 0 0 268 257 453 82 3 452 325 5 0 82 3 453 325 1 0
 81 1 156 701 96 88 454 0 0 178 455 81 1 29 703 96 12 456 0 178 197 457 84 32 44
7 e46d606d9d022532592868a077d53f2a81 1 456 495 37 12 0 29 458 459 460 81 1 197 7
04 96 192 344 0 29 109 461 84 32 457 5e3f2a8022f0a3d6fef18e87ab328d3c81 1 109 70
5 96 70 462 0 197 131 463 84 32 461 68ddbce360d39c230b1bf43f4324347281 1 462 11
 37 70 0 109 0 401 464 84 32 463 54daf6d8046daacabd4301042c7fb41081 1 401 23 37
 87 0 423 462 399 465 82 3 464 323 5 1 16 87 22 423 ?92 74 78 105 0 0 3 81 1 423
 716 96 87 401 0 420 431 466 82 3 465 323 11 1 84 32 466 6463f9832d76e846b56cbf7
f88964e0c17 92 0 173 91 55 35 65 87 0 0 +17 65 0 59 60 46 53 92 87 0 0 -81 1 458
 494 37 94 0 101 133 456 467 81 1 459 496 37 31 0 128 456 394 468 82 3 460 326 6
 1 81 1 128 710 96 31 459 0 183 191 469 81 1 394 497 37 18 0 391 459 470 471 82
 3 468 326 7 1 81 1 470 498 37 90 0 472 394 473 474 82 3 471 326 0 2 81 1 472 50
6 278 90 470 368 386 377 475 81 1 473 499 37 79 0 386 470 476 477 82 3 474 326 1
 2 81 1 386 505 278 79 473 384 391 472 478 81 1 476 500 37 176 0 377 473 0 479 8
2 3 477 326 2 2 81 1 377 507 278 176 476 375 472 280 480 82 3 479 326 3 2 81 1 2
80 508 278 64 481 341 377 275 482 83 3 480 .764705882352941 .87843137254902 .945
08278019379 81 1 481 85 37 64 0 280 45 121 483 81 1 341 673 331 64 280 349 375 3
36 484 83 3 482 .764705882352941 .87843137254902 .94508278019379 82 1 484 999999
 81 1 45 60 37 35 0 0 56 481 485 81 1 121 136 37 112 0 113 481 335 486 82 3 483
 323 2 2 82 3 486 324 0 1 82 3 485 323 7 0 83 3 478 .764705882352941 .8784313725
4902 .94508278019379 81 1 368 671 331 90 472 365 384 375 487 83 3 475 .764705882
352941 .87843137254902 .94508278019379 82 1 487 999999 84 32 469 61ff17d56197e83
39d83d1790af0bda881 1 101 714 96 94 458 0 418 420 488 81 1 133 493 37 103 0 131
 489 458 490 82 3 467 326 5 1 81 1 489 492 37 74 0 158 491 133 492 82 3 490 326
 4 1 81 1 158 708 96 74 489 0 134 183 493 81 1 491 491 37 78 0 86 160 489 494 82
 3 492 326 3 1 81 1 86 722 96 78 491 0 99 113 495 81 1 160 490 37 110 0 134 454
 491 496 82 3 494 326 2 1 81 1 454 489 37 88 0 156 39 160 497 82 3 496 326 1 1 8
1 1 39 488 37 126 0 0 33 454 498 82 3 497 326 0 1 82 3 498 326 3 0 84 32 495 52b
e67b76156176416fea9a9b30fde0584 32 493 d4a66dcc7cfcedea85c7b275e1423bbf84 32 488
 17f5accd71a77d5f61978350049267d684 32 455 38282a9abb9317e4f9a8be055482ba5384 32
 443 6e6a52fd16504c045ddf2191ecb0a51817 44 0 299 136 438 13 42 405 0 127 +30 442
 402 0 405 407 427 0 +.00826664512000008 -.04536 .123 0 0 1 30 407 403 0 243 439
 442 0 +.11563588024 -368594044175552e-31 .123 0 0 1 30 427 401 0 250 442 139 0
 +-.09910259 -368594044175552e-31 .123 0 0 1 30 139 400 0 111 427 104 0 +.008266
64512000008 .04536 .123 0 0 1 134 439 412 0 406 200 407 499 +500 501 134 200 413
 0 413 193 439 502 +503 504 141 499 300 499 499 439 136 500 3 22 3 20 6 FFF2 505
 506 507 135 501 2 0 45 66 505 .11563588024 -368594044175552e-31 .123 .115613832
256 -.000664916448000036 .123 .115243366048 -.00510985977600003 .123 .1144660928
8 -.00748346625600003 .123 .112753254592 -.01150405804800002 .123 .111136625872
 -.01434612547200002 .123 .107690320576 -.01857316473600005 .123 .10621060312 -.
02002317744 .123 .103317096448 -.02258815272000005 .123 .101184112 -.02424585811
200005 .123 .097978229824 -.02637294038400005 .123 .0953717108320001 -.027839060
25600005 .123 .091472128768 -.03009374121600005 .123 .0852847680640001 -.0328013
5252800005 .123 .0819779656000001 -.03416462548800005 .123 .074375040256 -.03681
339648000005 .123 .0656879749600001 -.03905714568000005 .123 .057960012256 -.040
73096966400005 .123 .045662505328 -.04266998803200005 .123 .035644636768 -.04373
430297600005 .123 .0178184813440001 -.045388833168 .123 .00826664512000008 -.045
36 .123 127 22 506 4 1 1 1 1 1 1 1 1 1 1 1 1 1 1 1 1 1 1 4 0 0 128 22 507 0 .028
503 .051198 .077456 .102234 .132082 .151699 .176668 .19888 .22408 .24666 .274645
 .308338 .333468 .370018 .409455 .446713 .491629 .534026 .602704 ??67 300 393 0
 232 233 214 0 +439 0 0 1 .01064900131935908 50 233 395 0 181 0 300 0 +.00757226
034509576 0 .123 0 0 1 1 0 0 67 214 392 0 286 300 209 0 +200 0 0 1 .010649001319
35294 141 502 214 502 502 200 136 503 3 22 3 20 6 FFF2 508 509 510 135 504 2 0 4
5 66 508 .00826664512000008 -.04536 .123 -.00128519110399994 -.045388833168 .123
 -.01911134652799995 -.04373430297600005 .123 -.02912921542399995 -.042669988032
00005 .123 -.04142672201599995 -.04073096966400005 .123 -.049154685056 -.0390571
4568000005 .123 -.0578417503519999 -.03681339648000005 .123 -.0654446753599999 -
.03416462548800005 .123 -.0687514778239999 -.03280135252800005 .123 -.0749388385
28 -.03009374121600005 .123 -.078838420592 -.02783906025600005 .123 -.0814449395
84 -.02637294038400005 .123 -.0846508217599999 -.02424585811200005 .123 -.086783
806208 -.02258815272000005 .123 -.0896773128799999 -.02002317744000005 .123 -.09
1157030672 -.01857316473600005 .123 -.094603335968 -.01434612547200004 .123 -.09
6219964352 -.01150405804800004 .123 -.09793280264 -.00748346625600005 .123 -.098
710075808 -.00510985977600005 .123 -.099080542016 -.000664916448000036 .123 -.09
910259 -368594044175552e-31 .123 127 22 509 4 1 1 1 1 1 1 1 1 1 1 1 1 1 1 1 1 1
 1 4 0 0 128 22 510 0 .068678 .111075 .155991 .193249 .232686 .269236 .294366 .3
28059 .356044 .378624 .403824 .426036 .451005 .470622 .50047 .525248 .551506 .57
4201 .602704 ??15 299 373 0 136 232 0 17 136 0 299 242 44 51 125 103 0 102 -17 4
38 0 299 44 242 258 511 406 0 0 +17 42 0 41 253 34 258 44 405 0 512 -15 41 353 0
 34 286 0 17 253 0 41 43 42 249 512 413 0 0 +17 512 0 182 511 251 258 253 413 0
 438 -15 182 378 0 241 181 0 17 511 0 182 241 512 255 438 406 0 0 -17 251 0 182
 512 241 249 248 199 0 253 -17 241 0 182 251 511 239 198 192 0 248 -17 248 0 246
 240 247 239 251 199 0 0 +17 198 0 213 236 238 255 241 192 0 511 +17 242 0 299 4
38 136 255 236 243 0 198 -84 32 440 4ee841f59af6be5bd0d9384d6d95048984 32 435 cb
c95402234cb87cb2c31e6a7b35985384 32 432 e9e15b2daed6280522b487eec4e618f684 32 42
8 706c81b7ff556d477c5dbd3899799b9d84 32 424 9819419b9116d8ad4a4d091db4fc548384 3
2 419 7d24b89ce471e20dcff98ca7391643f784 32 414 e850f12bb7330851208de94421b3ffc2
82 3 410 325 19 1 81 1 97 29 37 67 0 93 399 513 514 82 3 402 323 9 1 81 1 513 46
 37 26 0 0 97 54 515 82 3 514 323 7 1 18 26 45 513 166 53 255 10 ?3 81 1 54 54 3
7 53 0 0 513 56 516 82 3 515 323 1 0 82 3 516 323 3 0 17 166 0 162 69 163 26 72
 88 0 61 -17 72 0 71 76 61 167 166 88 0 163 +81 1 223 744 226 64 349 0 222 211 5
17 83 1 398 0 83 1 517 0 83 3 395 .764705882352941 .87843137254902 .945082780193
79 81 1 220 742 226 90 365 0 218 222 518 83 1 389 0 83 1 518 0 82 1 388 999999 8
2 1 383 999999 83 1 379 0 82 1 378 999999 83 1 374 0 82 1 373 999999 84 32 370 6
d8c17d2dbd20f0cf0500e71086bb36a83 1 363 0 79 21 361 SDL/TYSA_TRANSLUCENCY82 1 35
8 999999 84 32 356 aeae74ba2e694c71d46fe40b36c3c8e283 1 354 0 79 15 353 UGS/Obje
ctState79 14 348 SWEntUnchanged82 3 345 324 1 2 82 1 342 999999 82 3 340 324 0 2
 82 1 334 999999 79 15 330 SDL/TYSA_COLOUR83 3 303 .764705882352941 .87843137254
902 .94508278019379 83 3 295 .764705882352941 .87843137254902 .94508278019379 83
 3 289 .764705882352941 .87843137254902 .94508278019379 83 3 282 .76470588235294
1 .87843137254902 .94508278019379 82 3 274 325 9 0 79 9 273 BTI/DetId82 3 252 32
6 1 0 83 1 230 0 141 201 209 201 201 193 136 202 3 22 3 20 6 FFF2 519 520 521 13
5 203 2 0 45 66 519 .00826664512000008 .04536 .123 -.00128519110399994 .04538883
3168 .123 -.01911134652799995 .04373430297599995 .123 -.02912921542399995 .04266
998803199995 .123 -.04142672201599995 .04073096966399995 .123 -.049154685056 .03
905714568 .123 -.0578417503519999 .03681339648 .123 -.0654446753599999 .03416462
548799995 .123 -.0687514778239999 .03280135252799995 .123 -.074938838528 .030093
74121599995 .123 -.078838420592 .027839060256 .123 -.081444939584 .026372940384
 .123 -.0846508217599999 .02424585811199995 .123 -.086783806208 .02258815272 .12
3 -.0896773128799999 .02002317743999995 .123 -.091157030672 .018573164736 .123 -
.094603335968 .01434612547199998 .123 -.096219964352 .01150405804799996 .123 -.0
9793280264 .00748346625599998 .123 -.098710075808 .00510985977599998 .123 -.0990
80542016 .000664916447999962 .123 -.09910259 -368594044175552e-31 .123 127 22 52
0 4 1 1 1 1 1 1 1 1 1 1 1 1 1 1 1 1 1 1 4 0 0 128 22 521 0 .068678 .111075 .1559
91 .193249 .232686 .269236 .294366 .328059 .356044 .378624 .403824 .426036 .4510
05 .470622 .50047 .525248 .551506 .574201 .602704 ??17 84 0 83 68 77 171 85 179
 0 0 +17 85 0 177 81 174 80 84 179 0 76 -84 32 186 064d9410c505cb8a56d2aac998f73
89d84 32 161 9ffcf0a789899cacab9130c9ee961d7a136 140 3 22 3 20 6 FFF2 522 523 52
4 135 141 2 0 45 66 522 .11563588024 -368594044175552e-31 .127 .115613832256 .00
0664916447999962 .127 .115243366048 .00510985977599996 .127 .11446609288 .007483
46625599996 .127 .112753254592 .01150405804799994 .127 .111136625872 .0143461254
7199996 .127 .107690320576 .01857316473599995 .127 .10621060312 .020023177439999
95 .127 .103317096448 .02258815271999995 .127 .101184112 .02424585811199995 .127
 .097978229824 .02637294038399995 .127 .0953717108320001 .02783906025599995 .127
 .091472128768 .03009374121599995 .127 .0852847680640001 .03280135252799995 .127
 .0819779656000001 .03416462548799995 .127 .074375040256 .03681339647999995 .127
 .0656879749600001 .03905714567999995 .127 .057960012256 .04073096966399995 .127
 .045662505328 .04266998803199995 .127 .035644636768 .04373430297599995 .127 .01
78184813440001 .045388833168 .127 .00826664512000008 .04536 .127 127 22 523 4 1
 1 1 1 1 1 1 1 1 1 1 1 1 1 1 1 1 1 4 0 0 128 22 524 0 .028503 .051198 .077456 .1
02234 .132082 .151699 .176668 .19888 .22408 .24666 .274645 .308338 .333468 .3700
18 .409455 .446713 .491629 .534026 .602704 ??84 32 135 c102b442d0906131596a3f0d4
908f53984 32 123 9a6843dd5f1633ba7c7e21ff55f6d24f84 32 100 02676926eb547fef0b434
30bc017d85882 3 58 323 5 0 82 3 40 326 2 0 19 19 1 0 3 0 11 7 S0 141 23 21 23 23
 9 136 24 3 22 3 20 6 FFF2 525 526 527 135 25 2 0 45 66 525 .11563588024 -368594
044175552e-31 .127 .115613832256 .000664916447999962 .127 .115243366048 .0051098
5977599996 .127 .11446609288 .00748346625599996 .127 .112753254592 .011504058047
99994 .127 .111136625872 .01434612547199996 .127 .107690320576 .0185731647359999
5 .127 .10621060312 .02002317743999995 .127 .103317096448 .02258815271999995 .12
7 .101184112 .02424585811199995 .127 .097978229824 .02637294038399995 .127 .0953
717108320001 .02783906025599995 .127 .091472128768 .03009374121599995 .127 .0852
847680640001 .03280135252799995 .127 .0819779656000001 .03416462548799995 .127 .
074375040256 .03681339647999995 .127 .0656879749600001 .03905714567999995 .127 .
057960012256 .04073096966399995 .127 .045662505328 .04266998803199995 .127 .0356
44636768 .04373430297599995 .127 .0178184813440001 .045388833168 .127 .008266645
12000008 .04536 .127 127 22 526 4 1 1 1 1 1 1 1 1 1 1 1 1 1 1 1 1 1 1 4 0 0 128
 22 527 0 .028503 .051198 .077456 .102234 .132082 .151699 .176668 .19888 .22408
 .24666 .274645 .308338 .333468 .370018 .409455 .446713 .491629 .534026 .602704
 ??74 4 CI16 index_map_offset0 0 1 dCCZ20 17 10 0 0 476 309 312 337 301 318 350
 15 229 5 0 0 0 0 0 0 0 0 0 0 80 1 14 528 529 9000 0 0 0 0 3 5 0 0 0 FFTFFFFFFFF
FFF1 82 1 16 32 79 24 529 UG2/BODY_COLOR_ATTRIBUTE1 0 
